<svg width="32" height="32" viewBox="0 0 32 32" fill="none" xmlns="http://www.w3.org/2000/svg">
<g id="Frame 427319680">
<path id="Vector" d="M20.7356 16L14.1609 9.42529L13.2874 10.3448L18.9425 16L13.2874 21.6552L14.1609 22.5747L20.7356 16ZM32 15.992C32 18.2042 31.5802 20.2844 30.7406 22.2326C29.901 24.1807 28.7616 25.8754 27.3223 27.3165C25.883 28.7575 24.1906 29.8984 22.2449 30.739C20.2992 31.5797 18.2202 32 16.008 32C13.7958 32 11.7156 31.5802 9.76745 30.7406C7.81928 29.901 6.12466 28.7616 4.68358 27.3223C3.24248 25.883 2.10161 24.1906 1.26097 22.2449C0.420322 20.2992 -6.02333e-07 18.2202 -6.99033e-07 16.008C-7.95732e-07 13.7958 0.419784 11.7156 1.25935 9.76745C2.09896 7.81928 3.23839 6.12466 4.67765 4.68359C6.11695 3.24248 7.80944 2.10161 9.75513 1.26097C11.7008 0.420324 13.7798 1.30502e-06 15.992 1.20832e-06C18.2042 1.11162e-06 20.2844 0.419784 22.2326 1.25935C24.1807 2.09896 25.8754 3.23839 27.3165 4.67765C28.7575 6.11695 29.8984 7.80944 30.739 9.75513C31.5797 11.7008 32 13.7798 32 15.992ZM30.7126 16C30.7126 11.8927 29.2874 8.41379 26.4368 5.56322C23.5862 2.71264 20.1073 1.28736 16 1.28736C11.8927 1.28736 8.41379 2.71264 5.56322 5.56322C2.71264 8.41379 1.28736 11.8927 1.28736 16C1.28736 20.1073 2.71264 23.5862 5.56322 26.4368C8.41379 29.2874 11.8927 30.7126 16 30.7126C20.1073 30.7126 23.5862 29.2874 26.4368 26.4368C29.2874 23.5862 30.7126 20.1073 30.7126 16Z" fill="#F1F1F1"/>
</g>
</svg>
