<svg width="18" height="18" viewBox="0 0 18 18" fill="none" xmlns="http://www.w3.org/2000/svg">
<g id="Group">
<path id="Vector" d="M14.6439 18H3.35606C1.50255 18 0 16.4974 0 14.6439V3.35606C0 1.50255 1.50255 0 3.35606 0H14.6439C16.4974 0 18 1.50255 18 3.35606V14.6439C18 16.4974 16.4974 18 14.6439 18Z" fill="#1CA7DA"/>
<g id="Letras">
<g id="B">
<path id="Vector_2" d="M7.9973 8.63562C7.9973 8.63562 8.98259 8.559 8.98259 7.35526C8.98259 6.14992 8.17664 5.56348 7.15489 5.56348H3.79431V12.2942H7.15489C7.15489 12.2942 9.2069 12.3613 9.2069 10.3071C9.20636 10.3066 9.29577 8.63562 7.9973 8.63562ZM5.27504 6.75923H7.15463C7.15463 6.75923 7.61175 6.75923 7.61175 7.45902C7.61175 8.15988 7.34301 8.26152 7.03782 8.26152H5.27504V6.75923ZM7.05937 11.0977H5.27504V9.2987H7.15463C7.15463 9.2987 7.83579 9.28938 7.83579 10.2231C7.83579 11.0101 7.32705 11.0918 7.05937 11.0977Z" fill="white"/>
</g>
<g id="e">
<path id="Vector_3" d="M11.9427 7.27539C9.45858 7.27539 9.46044 9.86168 9.46044 9.86168C9.46044 9.86168 9.29068 12.4344 11.9427 12.4344C11.9427 12.4344 14.1519 12.5666 14.1519 10.6448H13.0158C13.0158 10.6448 13.0533 11.369 11.9807 11.369C11.9807 11.369 10.8435 11.4483 10.8435 10.1975H14.1881C14.1884 10.1969 14.5569 7.27539 11.9427 7.27539ZM12.9533 9.29892H10.8318C10.8318 9.29892 10.9704 8.26175 11.968 8.26175C12.9658 8.26148 12.9533 9.29892 12.9533 9.29892Z" fill="white"/>
</g>
<g id="guion">
<path id="Vector_4" d="M13.2175 5.95898H10.553V6.78889H13.2175V5.95898Z" fill="white"/>
</g>
</g>
</g>
</svg>
