<svg width="56" height="54" viewBox="0 0 56 54" fill="none" xmlns="http://www.w3.org/2000/svg">
<path id="Vector" d="M5.45455 53.76C3.93939 53.76 2.65152 53.2285 1.59091 52.1654C0.530303 51.1024 0 49.8115 0 48.2929V8.01844C0 7.71471 0.0151515 7.44136 0.0454545 7.19837C0.0757576 6.95539 0.181818 6.74278 0.363636 6.56054L5.27273 0.728949C5.45455 0.485966 5.66667 0.303729 5.90909 0.182237C6.15152 0.0607458 6.42424 0 6.72727 0H49.2727C49.5758 0 49.8485 0.0607458 50.0909 0.182237C50.3333 0.303729 50.5455 0.485966 50.7273 0.728949L55.6364 6.56054C55.8182 6.74278 55.9242 6.95539 55.9545 7.19837C55.9849 7.44136 56 7.71471 56 8.01844V48.2929C56 49.8115 55.4697 51.1024 54.4091 52.1654C53.3485 53.2285 52.0606 53.76 50.5455 53.76H5.45455ZM4 6.19607H52L48.9091 2.55132H7.09091L4 6.19607ZM5.45455 51.2087H50.5455C51.3939 51.2087 52.0909 50.9353 52.6364 50.3886C53.1818 49.8419 53.4545 49.1433 53.4545 48.2929V8.74739H2.54545V48.2929C2.54545 49.1433 2.81818 49.8419 3.36364 50.3886C3.90909 50.9353 4.60606 51.2087 5.45455 51.2087ZM37.2727 40.6389L46.7273 31.1626L37.2727 21.6862L35.4545 23.5086L43.0909 31.1626L35.4545 38.8165L37.2727 40.6389ZM18.9091 40.6389L20.7273 38.8165L13.0909 31.1626L20.7273 23.5086L18.9091 21.6862L9.45455 31.1626L18.9091 40.6389Z" fill="#F1F1F1"/>
</svg>
