<svg width="18" height="18" viewBox="0 0 18 18" fill="none" xmlns="http://www.w3.org/2000/svg">
<g id="Group">
<path id="Vector" d="M14.6439 18H3.35606C1.50255 18 0 16.4974 0 14.6439V3.35606C0 1.50255 1.50255 0 3.35606 0H14.6439C16.4974 0 18 1.50255 18 3.35606V14.6439C18 16.4974 16.4974 18 14.6439 18Z" fill="#1CA7DA"/>
<g id="Group_2">
<g id="Group_3">
<path id="Vector_2" d="M6.47529 5.46511C6.47529 6.02042 6.12194 6.47489 5.46552 6.47489C4.85966 6.47489 4.45575 6.02042 4.45575 5.5154C4.45575 4.95983 4.85966 4.45508 5.46552 4.45508C6.07138 4.45508 6.47529 4.90981 6.47529 5.46511Z" fill="white"/>
</g>
<g id="Group_4">
<path id="Vector_3" d="M6.47525 6.97998H4.45544V13.5442H6.47525V6.97998Z" fill="white"/>
</g>
<g id="Group_5">
<path id="Vector_4" d="M11.3228 7.08105C10.2625 7.08105 9.6566 7.68692 9.40409 8.09083H9.35353L9.25242 7.23245H7.43457C7.43457 7.78803 7.48512 8.44418 7.48512 9.2017V13.5441H9.50493V9.95923C9.50493 9.75728 9.50493 9.60588 9.55549 9.45422C9.70689 9.10086 9.9594 8.6464 10.5147 8.6464C11.2217 8.6464 11.5247 9.25226 11.5247 10.0603V13.5444H13.5445V9.80783C13.5445 7.93942 12.5851 7.08105 11.3228 7.08105Z" fill="white"/>
</g>
</g>
</g>
</svg>
