<svg width="18" height="18" viewBox="0 0 18 18" fill="none" xmlns="http://www.w3.org/2000/svg">
<path d="M14.6439 18H3.35606C1.50255 18 0 16.4974 0 14.6439V3.35606C0 1.50255 1.50255 0 3.35606 0H14.6439C16.4974 0 18 1.50255 18 3.35606V14.6439C18 16.4974 16.4974 18 14.6439 18Z" fill="#1CA7DA"/>
<path d="M13 5H5C4.45 5 4 5.45 4 6V12C4 12.55 4.45 13 5 13H13C13.55 13 14 12.55 14 12V6C14 5.45 13.55 5 13 5ZM12.8 7.125L9.53 9.17C9.205 9.375 8.795 9.375 8.47 9.17L5.2 7.125C5.075 7.045 5 6.91 5 6.765C5 6.43 5.365 6.23 5.65 6.405L9 8.5L12.35 6.405C12.635 6.23 13 6.43 13 6.765C13 6.91 12.925 7.045 12.8 7.125Z" fill="white"/>
</svg>
