<svg width="56" height="56" viewBox="0 0 56 56" fill="none" xmlns="http://www.w3.org/2000/svg">
<path id="Vector" d="M22.6154 20.5871C23.7949 20.5871 24.7821 20.1902 25.5769 19.3964C26.3718 18.6027 26.7692 17.6168 26.7692 16.439C26.7692 15.2611 26.3718 14.2753 25.5769 13.4815C24.7821 12.6877 23.7949 12.2908 22.6154 12.2908C21.4359 12.2908 20.4487 12.6877 19.6538 13.4815C18.859 14.2753 18.4615 15.2611 18.4615 16.439C18.4615 17.6168 18.859 18.6027 19.6538 19.3964C20.4487 20.1902 21.4359 20.5871 22.6154 20.5871ZM22.6923 32.8779C24.2308 32.8779 25.7308 32.6091 27.1923 32.0713C28.6538 31.5336 30 30.7526 31.2308 29.7284C29.6923 29.0114 28.2051 28.4865 26.7692 28.1536C25.3333 27.8208 23.9744 27.6543 22.6923 27.6543C20.9487 27.6543 19.2949 27.8336 17.7308 28.192C16.1667 28.5505 14.9487 29.0626 14.0769 29.7284C15.2564 30.7526 16.5897 31.5336 18.0769 32.0713C19.5641 32.6091 21.1026 32.8779 22.6923 32.8779ZM54.4615 56L37.7692 39.3306C35.4615 41.2254 33.1282 42.6722 30.7692 43.6708C28.4103 44.6694 25.6923 45.1687 22.6154 45.1687C16.3077 45.1687 10.9615 42.9794 6.57692 38.6008C2.19231 34.2222 0 28.8834 0 22.5844C0 16.2853 2.19231 10.9465 6.57692 6.5679C10.9615 2.1893 16.3077 0 22.6154 0C28.9231 0 34.2692 2.1893 38.6538 6.5679C43.0385 10.9465 45.2308 16.2853 45.2308 22.5844C45.2308 25.6571 44.7308 28.3841 43.7308 30.7654C42.7308 33.1468 41.2821 35.4897 39.3846 37.7942L56 54.3868L54.4615 56ZM22.6154 43.0178C28.2564 43.0178 33.0769 41.0206 37.0769 37.0261C41.0769 33.0316 43.0769 28.2176 43.0769 22.5844C43.0769 16.9511 41.0769 12.1372 37.0769 8.14266C33.0769 4.14815 28.2564 2.15089 22.6154 2.15089C16.9744 2.15089 12.1538 4.14815 8.15385 8.14266C4.15385 12.1372 2.15385 16.9511 2.15385 22.5844C2.15385 28.2176 4.15385 33.0316 8.15385 37.0261C12.1538 41.0206 16.9744 43.0178 22.6154 43.0178Z" fill="#F1F1F1"/>
</svg>
