<svg width="57" height="56" viewBox="0 0 57 56" fill="none" xmlns="http://www.w3.org/2000/svg">
<path id="Vector" d="M5.32759 56C3.93295 56 2.77969 55.408 1.86782 54.2239C0.955939 53.0398 0.5 51.5423 0.5 49.7313V6.26866C0.5 4.45771 0.955939 2.9602 1.86782 1.77612C2.77969 0.59204 3.93295 0 5.32759 0H51.6724C53.0671 0 54.2203 0.59204 55.1322 1.77612C56.0441 2.9602 56.5 4.45771 56.5 6.26866V49.7313C56.5 51.5423 56.0441 53.0398 55.1322 54.2239C54.2203 55.408 53.0671 56 51.6724 56H5.32759ZM5.32759 53.0746H51.6724C52.3161 53.0746 52.9061 52.7264 53.4425 52.0299C53.9789 51.3333 54.2471 50.5672 54.2471 49.7313V11.2836H2.75287V49.7313C2.75287 50.5672 3.02107 51.3333 3.55747 52.0299C4.09387 52.7264 4.68391 53.0746 5.32759 53.0746Z" fill="#F1F1F1"/>
</svg>
